<svg xmlns="http://www.w3.org/2000/svg" id="SvgjsSvg940137" width="4096" height="3565.840706418285" version="1.1" xmlns:xlink="http://www.w3.org/1999/xlink" xmlns:svgjs="http://svgjs.com/svgjs"><defs id="SvgjsDefs940138"></defs><g id="SvgjsG940139" transform="translate(328, 328) scale(34.4)" opacity="1"><defs id="SvgjsDefs265486"></defs><g id="SvgjsG265487" transform="scale(0.2969055550313743)" opacity="1"><g id="SvgjsG265488" class="swyQpKSQE" transform="translate(-7.497801942160958, -33.4542707750487) scale(5.4969225723050785)" light-content="false" non-strokable="false" fill="#386ef5"><path d="M1.364 12.252v32.467a6.166 6.166 0 0 0 6.166 6.166h2.266l5.224 5.224a6.164 6.164 0 0 0 4.359 1.806l.076-.001a6.161 6.161 0 0 0 4.389-1.912l4.874-5.116H56.47a6.166 6.166 0 0 0 6.166-6.166V12.252a6.166 6.166 0 0 0-6.166-6.166H7.529a6.165 6.165 0 0 0-6.165 6.166zm6.165 0H56.47v32.467H26.075l-6.696 7.03-7.031-7.03H7.529V12.252z"></path><path d="M16.424 31.266h31.152a2.78 2.78 0 1 0 0-5.56H16.424a2.78 2.78 0 1 0 0 5.56zm0 9.329h15.167a2.78 2.78 0 1 0 0-5.56H16.424a2.78 2.78 0 1 0 0 5.56zm0-18.658h31.152a2.78 2.78 0 1 0 0-5.56H16.424a2.78 2.78 0 1 0 0 5.56z"></path></g></g></g></svg>